<svg width="24" height="24" viewBox="0 0 24 24" fill="none" xmlns="http://www.w3.org/2000/svg">
<path opacity="0.987" fill-rule="evenodd" clip-rule="evenodd" d="M10.8144 1.59161C11.9019 1.47011 12.5454 1.47011 13.7139 1.59161C15.7823 1.89776 17.6997 2.85384 19.1889 4.32161C18.1825 5.27282 17.1894 6.23791 16.2099 7.21661C14.3339 5.62661 12.2399 5.25961 9.92785 6.11561C8.23185 6.89561 7.05085 8.15961 6.38485 9.90761C5.29651 9.09736 4.22235 8.26823 3.16285 7.42061C3.08922 7.38186 3.00512 7.36766 2.92285 7.38011C4.60585 4.13511 7.23585 2.20511 10.8129 1.59011" fill="#F44336"/>
<path opacity="0.997" fill-rule="evenodd" clip-rule="evenodd" d="M2.91938 7.37978C3.00438 7.36678 3.08488 7.38028 3.16088 7.42028C4.22038 8.2679 5.29454 9.09703 6.38288 9.90728C6.21162 10.5884 6.10366 11.2838 6.06038 11.9848C6.09738 12.6628 6.20488 13.3283 6.38288 13.9813L3.00038 16.6738C1.52738 13.5958 1.50038 10.4978 2.91938 7.37978Z" fill="#FFC107"/>
<path opacity="0.999" fill-rule="evenodd" clip-rule="evenodd" d="M19.0271 19.9351C17.9739 19.0063 16.8713 18.135 15.7241 17.3251C16.8741 16.5131 17.5721 15.3991 17.8181 13.9831H12.1826V10.0696C15.4326 10.0426 18.6811 10.0701 21.9281 10.1521C22.5441 13.4971 21.8326 16.5131 19.7936 19.2001C19.5512 19.4578 19.2943 19.7031 19.0271 19.9351Z" fill="#448AFF"/>
<path opacity="0.993" fill-rule="evenodd" clip-rule="evenodd" d="M6.3825 13.9829C7.6125 17.0399 9.8675 18.4669 13.1475 18.2639C14.0682 18.1573 14.951 17.8357 15.7245 17.3249C16.8725 18.1369 17.9735 19.0069 19.0275 19.9349C17.3575 21.4356 15.2282 22.326 12.987 22.4609C12.4778 22.5016 11.9662 22.5016 11.457 22.4609C7.639 22.0109 4.82 20.0819 3 16.6739L6.3825 13.9829Z" fill="#43A047"/>
</svg>
